<svg width="301" height="1521" viewBox="0 0 301 1521" fill="none" xmlns="http://www.w3.org/2000/svg">
<path d="M273.5 55.1736H26V1399.72C26 1433.59 44.8064 1464.65 74.8135 1480.35L82.8114 1484.54C126.35 1507.32 178.392 1506.84 221.503 1483.26L226.17 1480.7C255.352 1464.74 273.5 1434.13 273.5 1400.87V55.1736Z" stroke="#B1EAF6" stroke-opacity="0.83" stroke-width="20"/>
<path d="M10 39.1736V26C10 17.1634 17.1634 10 26 10H274.5C283.337 10 290.5 17.1634 290.5 26V39.1736C290.5 48.0101 283.337 55.1736 274.5 55.1736H26C17.1634 55.1736 10 48.0101 10 39.1736Z" stroke="#B5DCE4" stroke-opacity="0.94" stroke-width="20"/>
<path d="M43 1430L67.5 1405L124.5 1418.5L67.5 1457L43 1430Z" fill="#F5F5F5" stroke="#ACAAAA" stroke-width="4"/>
<path d="M125 1430L149.5 1405L206.5 1418.5L149.5 1457L125 1430Z" fill="#F5F5F5" stroke="#ACAAAA" stroke-width="4"/>
<path d="M141 1456L165.5 1431L222.5 1444.5L165.5 1483L141 1456Z" fill="#F5F5F5" stroke="#ACAAAA" stroke-width="4"/>
<path d="M256.157 1387.31L256.11 1422.31L205.91 1452.5L219.764 1385.12L256.157 1387.31Z" fill="#F5F5F5" stroke="#ACAAAA" stroke-width="4"/>
<path d="M87.2368 1436.24L122.055 1432.64L157.309 1479.42L88.8577 1472.67L87.2368 1436.24Z" fill="#F5F5F5" stroke="#ACAAAA" stroke-width="4"/>
<path d="M157 1393L181.5 1368L238.5 1381.5L181.5 1420L157 1393Z" fill="#F5F5F5" stroke="#ACAAAA" stroke-width="4"/>
<path d="M59 1378L83.5 1353L140.5 1366.5L83.5 1405L59 1378Z" fill="#D9D9D9" fill-opacity="0.4" stroke="#ACAAAA" stroke-width="4"/>
<path d="M235.261 1343.38L236.894 1378.35L188.201 1410.91L198.805 1342.95L235.261 1343.38Z" fill="#F5F5F5" stroke="#ACAAAA" stroke-width="4"/>
<path d="M125 1356L149.5 1331L206.5 1344.5L149.5 1383L125 1356Z" fill="#F5F5F5" stroke="#ACAAAA" stroke-width="4"/>
<path d="M120.367 1345.92L97.9041 1372.76L40.0207 1363.78L93.8244 1320.92L120.367 1345.92Z" fill="#F5F5F5" stroke="#ACAAAA" stroke-width="4"/>
<path d="M92.9495 1383.17L127.486 1377.47L165.503 1422.04L96.7685 1419.43L92.9495 1383.17Z" fill="#F5F5F5" stroke="#ACAAAA" stroke-width="4"/>
</svg>
