<svg width="301" height="1521" viewBox="0 0 301 1521" fill="none" xmlns="http://www.w3.org/2000/svg">
<path d="M273.5 55.1736H26V1399.72C26 1433.59 44.8064 1464.65 74.8135 1480.35L82.8114 1484.54C126.35 1507.32 178.392 1506.84 221.503 1483.26L226.17 1480.7C255.352 1464.74 273.5 1434.13 273.5 1400.87V55.1736Z" stroke="#B1EAF6" stroke-opacity="0.83" stroke-width="20"/>
<path d="M10 39.1736V26C10 17.1634 17.1634 10 26 10H274.5C283.337 10 290.5 17.1634 290.5 26V39.1736C290.5 48.0101 283.337 55.1736 274.5 55.1736H26C17.1634 55.1736 10 48.0101 10 39.1736Z" stroke="#B5DCE4" stroke-opacity="0.94" stroke-width="20"/>
<path d="M273.5 55.1736H26V1399.72C26 1433.59 44.8064 1464.65 74.8135 1480.35L82.8114 1484.54C126.35 1507.32 178.392 1506.84 221.503 1483.26L226.17 1480.7C255.352 1464.74 273.5 1434.13 273.5 1400.87V55.1736Z" stroke="#B1EAF6" stroke-opacity="0.83" stroke-width="20"/>
<path d="M10 39.1736V26C10 17.1634 17.1634 10 26 10H274.5C283.337 10 290.5 17.1634 290.5 26V39.1736C290.5 48.0101 283.337 55.1736 274.5 55.1736H26C17.1634 55.1736 10 48.0101 10 39.1736Z" stroke="#B5DCE4" stroke-opacity="0.94" stroke-width="20"/>
<ellipse cx="108" cy="1423.93" rx="71.7659" ry="41.6021" transform="rotate(21.4105 108 1423.93)" fill="#C8C8C8"/>
<ellipse cx="109.68" cy="1417.53" rx="64.8208" ry="35.0333" transform="rotate(21.4105 109.68 1417.53)" fill="#D9D9D9"/>
<ellipse cx="133.5" cy="1358" rx="72.5" ry="50" fill="#C8C8C8"/>
<ellipse cx="132.72" cy="1350.11" rx="65.4839" ry="42.1053" fill="#D9D9D9"/>
<ellipse cx="191.161" cy="1396.97" rx="70.1488" ry="53.3912" transform="rotate(-11.167 191.161 1396.97)" fill="#C8C8C8"/>
<ellipse cx="188.789" cy="1388.84" rx="63.3602" ry="44.961" transform="rotate(-11.167 188.789 1388.84)" fill="#D9D9D9"/>
</svg>
