<svg width="386" height="688" viewBox="0 0 386 688" fill="none" xmlns="http://www.w3.org/2000/svg">
<path d="M241.908 174.186L242.56 181.35C243.117 187.47 242.005 193.626 239.343 199.164L44.0282 605.431C38.3808 617.178 35.9363 630.209 36.9419 643.204L37.16 646.022C38.0101 657.008 50.6321 662.752 59.4738 656.175L64.1666 652.684C72.4768 646.503 79.1627 638.397 83.6503 629.063L282.744 214.935C284.114 212.085 286.082 209.564 288.514 207.544L303.046 195.472C309.016 190.513 313.846 184.326 317.209 177.332L362.87 82.3537C367.307 73.1231 367.92 62.5136 364.575 52.8335C357.94 33.6369 337.637 22.7919 317.992 27.9513L316.036 28.4652C304.401 31.521 294.693 39.529 289.481 50.3708L249.099 134.367C243.148 146.747 240.663 160.507 241.908 174.186Z" fill="#B1EAF6" fill-opacity="0.9"/>
</svg>
