<svg width="99" height="99" viewBox="0 0 99 99" fill="none" xmlns="http://www.w3.org/2000/svg">
<path d="M62.4854 17.9566C65.3435 17.9519 67.987 19.4724 69.4201 21.9453L82.8392 45.1003C84.2723 47.5732 84.2773 50.6228 82.8522 53.1003L69.5089 76.299C68.0839 78.7766 65.4454 80.3057 62.5872 80.3104L35.8249 80.3541C32.9668 80.3587 30.3233 78.8382 28.8902 76.3654L15.4711 53.2103C14.038 50.7375 14.033 47.6879 15.4581 45.2104L28.8014 22.0116C30.2264 19.5341 32.8649 18.005 35.7231 18.0003L62.4854 17.9566Z" fill="#781678" fill-opacity="0.84"/>
<path d="M61.2566 25.6413C62.3284 25.6395 63.3197 26.2097 63.8571 27.137L75.836 47.807C76.3734 48.7343 76.3752 49.8779 75.8409 50.807L63.9296 71.5159C63.3952 72.445 62.4058 73.0184 61.334 73.0202L37.4438 73.0592C36.372 73.0609 35.3807 72.4907 34.8433 71.5634L22.8645 50.8935C22.3271 49.9661 22.3252 48.8225 22.8596 47.8935L34.7708 27.1845C35.3052 26.2554 36.2947 25.682 37.3665 25.6803L61.2566 25.6413Z" fill="white"/>
<path d="M36.2237 30.6722C36.5813 30.0473 37.2473 29.6628 37.9673 29.6655L44.9103 29.6921L30.1199 55.5392L26.5145 49.7594C26.1249 49.1348 26.1099 48.3466 26.4756 47.7076L36.2237 30.6722Z" fill="#803579"/>
</svg>
