<svg width="378" height="655" viewBox="0 0 378 655" fill="none" xmlns="http://www.w3.org/2000/svg">
<path d="M50.1659 619.049L44.5 618L148.5 473.5C156.931 493.604 158.497 515.927 152.957 537.012L151.795 541.433C146.384 562.025 135.055 580.579 119.209 594.799L111.366 601.838C94.7404 616.759 72.1312 623.117 50.1659 619.049Z" fill="#CBCBCB"/>
<path d="M136.674 506.058L147.208 473.676C147.735 472.055 148.384 470.476 149.148 468.952L359.893 48.7083C363.18 42.1524 362.705 34.3379 358.648 28.2283C357.931 27.1488 356.721 26.4999 355.425 26.4999L355.17 26.4999C347.702 26.4999 340.866 30.6901 337.476 37.3447L126.194 452.174C125.073 454.375 123.588 456.372 121.804 458.081L72.627 505.159C52.8974 524.046 38.5438 547.839 31.0368 574.1L28.4867 583.021C27.0448 588.065 27.1685 593.428 28.8414 598.4L30.7335 604.024C36.1756 620.199 56.9821 624.593 68.4999 612L72.7685 607.905C102.134 579.738 124.086 544.753 136.674 506.058Z" fill="#E1E0E0"/>
</svg>
