<svg width="301" height="1521" viewBox="0 0 301 1521" fill="none" xmlns="http://www.w3.org/2000/svg">
<path d="M44.6753 656.768L24.5 671V1385.38C24.5 1412.7 36.6451 1438.61 57.6463 1456.09L66.9904 1463.86C91.5515 1484.31 122.497 1495.5 154.452 1495.5C186.239 1495.5 216.787 1483.17 239.671 1461.11L244.476 1456.48C263.023 1438.6 273.5 1413.95 273.5 1388.19V625.5L226.989 648.756C198.943 662.779 165.97 662.956 137.775 649.235C107.688 634.594 72.0175 637.48 44.6753 656.768Z" fill="#B1EAF6" fill-opacity="0.32"/>
<path d="M273.5 55.1736H26V1399.72C26 1433.59 44.8064 1464.65 74.8135 1480.35L82.8114 1484.54C126.35 1507.32 178.392 1506.84 221.503 1483.26L226.17 1480.7C255.352 1464.74 273.5 1434.13 273.5 1400.87V55.1736Z" stroke="#B1EAF6" stroke-opacity="0.83" stroke-width="20"/>
<path d="M10 39.1736V26C10 17.1634 17.1634 10 26 10H274.5C283.337 10 290.5 17.1634 290.5 26V39.1736C290.5 48.0101 283.337 55.1736 274.5 55.1736H26C17.1634 55.1736 10 48.0101 10 39.1736Z" stroke="#B5DCE4" stroke-opacity="0.94" stroke-width="20"/>
<g filter="url(#filter0_i_68_35)">
<path d="M94.7714 1140.66L35 1151.8V1278.5V1392L36.6072 1407.9C38.5363 1426.98 47.3406 1444.71 61.3778 1457.77L63.1056 1459.38C68.5347 1464.44 74.6404 1468.71 81.2472 1472.08L93.3952 1478.28C102.117 1482.73 111.469 1485.83 121.127 1487.45L124.465 1488.01C140.186 1490.65 156.234 1490.68 171.964 1488.1L190.889 1485L229.733 1467L243.082 1452.18C251.749 1442.56 257.741 1430.84 260.457 1418.17L261.796 1411.93C263.926 1402.01 265 1391.88 265 1381.73V1311.4V1151.8L209.16 1141.03C171.39 1133.74 132.587 1133.62 94.7714 1140.66Z" fill="#00BFFF"/>
</g>
<defs>
<filter id="filter0_i_68_35" x="35" y="1135.47" width="230" height="358.546" filterUnits="userSpaceOnUse" color-interpolation-filters="sRGB">
<feFlood flood-opacity="0" result="BackgroundImageFix"/>
<feBlend mode="normal" in="SourceGraphic" in2="BackgroundImageFix" result="shape"/>
<feColorMatrix in="SourceAlpha" type="matrix" values="0 0 0 0 0 0 0 0 0 0 0 0 0 0 0 0 0 0 127 0" result="hardAlpha"/>
<feOffset dy="4"/>
<feGaussianBlur stdDeviation="2"/>
<feComposite in2="hardAlpha" operator="arithmetic" k2="-1" k3="1"/>
<feColorMatrix type="matrix" values="0 0 0 0 0 0 0 0 0 0 0 0 0 0 0 0 0 0 0.25 0"/>
<feBlend mode="normal" in2="shape" result="effect1_innerShadow_68_35"/>
</filter>
</defs>
</svg>
