<svg width="301" height="1521" viewBox="0 0 301 1521" fill="none" xmlns="http://www.w3.org/2000/svg">
<path d="M45.1753 657.268L25 671.5V1385.88C25 1413.2 37.1451 1439.11 58.1463 1456.59L67.4904 1464.36C92.0515 1484.81 122.997 1496 154.952 1496C186.739 1496 217.287 1483.67 240.171 1461.61L244.976 1456.98C263.523 1439.1 274 1414.45 274 1388.69V626L227.489 649.256C199.443 663.279 166.47 663.456 138.275 649.735C108.188 635.094 72.5175 637.98 45.1753 657.268Z" fill="#B1EAF6" fill-opacity="0.32"/>
<path d="M273.5 55.1736H26V1399.72C26 1433.59 44.8064 1464.65 74.8135 1480.35L82.8114 1484.54C126.35 1507.32 178.392 1506.84 221.503 1483.26L226.17 1480.7C255.352 1464.74 273.5 1434.13 273.5 1400.87V55.1736Z" stroke="#B1EAF6" stroke-opacity="0.83" stroke-width="20"/>
<path d="M10 39.1736V26C10 17.1634 17.1634 10 26 10H274.5C283.337 10 290.5 17.1634 290.5 26V39.1736C290.5 48.0101 283.337 55.1736 274.5 55.1736H26C17.1634 55.1736 10 48.0101 10 39.1736Z" stroke="#B5DCE4" stroke-opacity="0.94" stroke-width="20"/>
<path d="M95 183L76.3384 233.494C65.2566 263.478 66.8143 296.676 80.6549 325.491L85.6631 335.917C99.8025 365.354 99.9984 399.58 86.1969 429.177L83.2522 435.492C67.746 468.744 66.3333 506.852 79.3348 541.161L95 582.5" stroke="#98B1B9" stroke-opacity="0.99" stroke-width="5"/>
<path d="M223 183L204.338 233.494C193.257 263.478 194.814 296.676 208.655 325.491L213.663 335.917C227.803 365.354 227.998 399.58 214.197 429.177L211.252 435.492C195.746 468.744 194.333 506.852 207.335 541.161L223 582.5" stroke="#99B1BA" stroke-width="5"/>
<path d="M154 183L135.338 233.494C124.257 263.478 125.814 296.676 139.655 325.491L144.663 335.917C158.803 365.354 158.998 399.58 145.197 429.177L142.252 435.492C126.746 468.744 125.333 506.852 138.335 541.161L154 582.5" stroke="#99B1BA" stroke-width="5"/>
<path d="M154.5 183L135.838 233.494C124.757 263.478 126.314 296.676 140.155 325.491L145.163 335.917C159.303 365.354 159.498 399.58 145.697 429.177L142.752 435.492C127.246 468.744 125.833 506.852 138.835 541.161L154.5 582.5" stroke="#99B1BA" stroke-width="5"/>
<circle cx="63" cy="680" r="9" fill="#00BFFF" fill-opacity="0.27"/>
<circle cx="230" cy="680" r="9" fill="#00BFFF" fill-opacity="0.27"/>
<circle cx="141.5" cy="698.5" r="3.5" fill="#00BFFF" fill-opacity="0.27"/>
<circle cx="86.5" cy="710.5" r="3.5" fill="#00BFFF" fill-opacity="0.27"/>
<circle cx="222.5" cy="717.5" r="3.5" fill="#00BFFF" fill-opacity="0.27"/>
<circle cx="183" cy="684" r="11" fill="#00BFFF" fill-opacity="0.27"/>
<circle cx="83" cy="774" r="11" fill="#00BFFF" fill-opacity="0.27"/>
<ellipse cx="226" cy="759.5" rx="20" ry="20.5" fill="#00BFFF" fill-opacity="0.27"/>
<ellipse cx="130" cy="674.5" rx="20" ry="20.5" fill="#00BFFF" fill-opacity="0.27"/>
<circle cx="150" cy="789" r="9" fill="#00BFFF" fill-opacity="0.27"/>
<circle cx="172" cy="748" r="9" fill="#00BFFF" fill-opacity="0.27"/>
<circle cx="95.5" cy="665.5" r="5.5" fill="#00BFFF" fill-opacity="0.27"/>
<circle cx="141.5" cy="698.5" r="3.5" fill="#00BFFF" fill-opacity="0.27"/>
</svg>
